<?xml version="1.0" encoding="UTF-8"?>
<svg id="Layer_1" data-name="Layer 1" xmlns="http://www.w3.org/2000/svg" viewBox="0 0 732.91 126.77">
  <defs>
    <style>
      .cls-1 {
        fill: #fff;
      }

      .cls-1, .cls-2 {
        stroke: #231f20;
        stroke-miterlimit: 10;
        stroke-width: 13px;
      }

      .cls-2 {
        fill: #231f20;
      }
    </style>
  </defs>
  <path class="cls-1" d="M301.45,126.77c0-66.42-66.03-120.27-147.48-120.27-81.45,0-147.48,53.85-147.48,120.27"/>
  <path class="cls-2" d="M153.72,119.97c38.15,0,69.08-31.73,69.08-70.86,0-10.97-2.43-21.37-6.78-30.64-18.82-7.67-39.96-11.97-62.3-11.97-22.34,0-43.48,4.31-62.3,11.97-4.34,9.27-6.78,19.66-6.78,30.64,0,39.13,30.93,70.86,69.08,70.86Z"/>
  <path class="cls-1" d="M726.41,126.77c0-66.42-66.03-120.27-147.48-120.27-81.45,0-147.48,53.85-147.48,120.27"/>
  <path class="cls-2" d="M581.93,119.97c38.15,0,69.08-31.73,69.08-70.86,0-10.97-2.43-21.37-6.78-30.64-18.82-7.67-39.96-11.97-62.3-11.97s-43.48,4.31-62.3,11.97c-4.34,9.27-6.78,19.66-6.78,30.64,0,39.13,30.93,70.86,69.08,70.86Z"/>
</svg>